<?xml version="1.0" encoding="UTF-8"?>
<svg
   xmlns:dc="http://purl.org/dc/elements/1.1/"
   xmlns:cc="http://web.resource.org/cc/"
   xmlns:rdf="http://www.w3.org/1999/02/22-rdf-syntax-ns#"
   xmlns:svg="http://www.w3.org/2000/svg"
   xmlns="http://www.w3.org/2000/svg"
   width="145.5mm"
   height="194.5mm"
   viewBox="0 0 145500 194500"
   onload="init(evt)">

   <metadata>
    <rdf:rdf>
     <dc:format>
      image/svg+xml
     </dc:format>
     <dc:title>
      Blank map
     </dc:title>
     <dc:creator>
      Peter Collingridge
     </dc:creator>
    </rdf:rdf>
   </metadata>

   <style type="text/css">
     path{
       fill: #ddd;
       stroke: #070000;
       stroke-width:77.04666949;
       stroke-opacity:1;
       fill-opacity:1;
       stroke-miterlimit:4;
       stroke-dasharray:none;
     }
     path:hover{
       	opacity: 0.5;
   	 }
     .city:hover{
        fill: #2980b9;
     }
   </style>

   <script type="text/ecmascript">
     <![CDATA[
       function init(evt)
       {
         if ( window.svgDocument == null )
         {
           svgDocument = evt.target.ownerDocument;
         }
       }

       function colourCountry(country_name, colour)
       {
     	var country = svgDocument.getElementById(country_name);
     	country.setAttributeNS(null, 'style', 'fill:'+ colour);
       }

       function displayName(country_name)
       {
         svgDocument.getElementById('country_name').firstChild.data = country_name;
       }
     ]]>
   </script>

     <path
       id="piaui" onmouseover="displayName('Piaui')"
       d="M 9475.6092,174836.41 L 9274.3567,173889.78 L 9475.6092,173631.61 L 9505.0855,173402.8 L 9648.4017,173259.03 L 9821.1942,173259.03 L 9993.9868,172800.4 L 10195.239,172656.63 L 10224.716,172513.88 L 10540.825,172398.46 L 10598.761,172025.88 L 10857.95,171509.54 L 11030.742,171423.48 L 11231.995,170477.87 L 11001.266,170219.7 L 11117.138,170133.64 L 11087.662,169817.76 L 11318.391,169215.36 L 11318.391,169072.61 L 11577.58,168785.07 L 11519.643,168526.9 L 11635.516,168470.21 L 11750.372,168011.57 L 11692.436,167867.81 L 11865.229,167523.58 L 11750.372,167151 L 11635.516,167036.6 L 11491.184,166749.06 L 11462.724,166262.08 L 11376.327,166147.68 L 11404.787,166003.91 L 11318.391,165917.85 L 11346.851,165688.03 L 11549.12,165373.16 L 11549.12,165257.75 L 11663.976,165171.69 L 11778.832,164512.59 L 11807.292,164426.53 L 11951.625,164196.71 L 12182.354,164082.31 L 12325.67,163652.02 L 12297.21,163423.21 L 12355.146,163279.44 L 12210.814,163049.62 L 12355.146,162906.87 L 12182.354,162562.64 L 12239.274,162390.52 L 12124.417,162276.12 L 12182.354,162074.64 L 11951.625,161902.53 L 12152.877,161529.95 L 12095.957,160899.21 L 12095.957,160870.86 L 12268.75,160526.63 L 12239.274,160296.81 L 12383.606,160240.11 L 12383.606,160096.34 L 12239.274,159838.17 L 11980.085,159723.77 L 11951.625,159493.94 L 12066.481,159465.59 L 12066.481,159379.54 L 11893.688,159149.71 L 11865.229,159093.02 L 11865.229,158805.49 L 12210.814,158432.91 L 12095.957,158232.45 L 12355.146,157974.28 L 12325.67,157830.51 L 12584.859,157457.93 L 12873.524,157285.82 L 12901.984,157085.36 L 13074.776,156970.95 L 13189.633,156913.24 L 13074.776,156683.42 L 13074.776,156569.01 L 12930.444,156482.96 L 13103.236,156425.25 L 12958.904,156224.79 L 12988.38,156110.38 L 12873.524,156052.67 L 12958.904,155966.61 L 12787.128,155880.56 L 12757.651,155651.75 L 12873.524,155479.63 L 12412.066,154819.52 L 12268.75,154504.66 L 11893.688,154274.83 L 11750.372,154074.37 L 11376.327,154131.07 L 11117.138,154016.66 L 11001.266,153844.55 L 10828.473,153902.26 L 10685.157,153758.49 L 10742.077,153500.32 L 10627.221,153414.26 L 10598.761,153213.8 L 10483.905,153185.45 L 10540.825,153070.03 L 10368.032,152726.82 L 10397.508,152583.05 L 10598.761,152554.7 L 10627.221,152353.23 L 10454.428,152038.36 L 10570.301,151922.94 L 10483.905,151664.77 L 10627.221,151292.19 L 10454.428,151206.14 L 10570.301,150689.79 L 10397.508,150288.87 L 10540.825,150288.87 L 10598.761,150174.46 L 10425.968,149886.93 L 10224.716,149744.18 L 10051.923,149227.84 L 9907.5905,149055.72 L 9965.5268,148453.32 L 9907.5905,148252.86 L 10022.447,148138.45 L 9993.9868,147966.34 L 9821.1942,147908.63 L 9821.1942,147880.28 L 9907.5905,147736.52 L 9879.1306,147478.34 L 9676.8616,147334.58 L 9619.9418,147162.46 L 9706.338,146789.89 L 9505.0855,146445.66 L 9533.5455,146216.85 L 9187.9604,145930.33 L 8986.7079,145384.63 L 8669.5828,145126.45 L 8583.1865,144925.99 L 8410.394,144495.71 L 8381.934,144209.19 L 8583.1865,144008.72 L 8554.7266,143807.25 L 8698.0427,143636.15 L 8641.1228,143348.62 L 8698.0427,143205.86 L 8986.7079,143033.75 L 8870.8353,142861.63 L 8900.3117,142717.87 L 9159.5005,142459.7 L 9216.4204,142201.52 L 9418.6893,142316.94 L 9505.0855,142201.52 L 9505.0855,142001.06 L 9187.9604,141886.66 L 9130.0241,141714.54 L 9302.8166,141456.37 L 9648.4017,141169.85 L 9648.4017,140940.03 L 9734.798,140796.26 L 9907.5905,140767.91 L 10368.032,140337.63 L 10742.077,140423.69 L 10771.553,139878.99 L 11117.138,139706.88 L 11376.327,139649.17 L 11346.851,139334.3 L 11606.04,139190.54 L 11923.165,139334.3 L 12355.146,138187.21 L 12556.399,137957.39 L 12383.606,137929.04 L 12355.146,137814.64 L 12470.002,137441.05 L 12729.191,137182.88 L 12873.524,137154.53 L 12873.524,136982.41 L 13333.965,137096.82 L 13621.614,136896.36 L 12958.904,136495.43 L 12958.904,136323.32 L 13563.678,136007.44 L 13708.01,135806.97 L 13736.47,135520.45 L 13852.343,135376.69 L 13880.803,135318.98 L 13822.866,135004.11 L 13880.803,134860.35 L 14226.388,134401.71 L 14053.595,134229.6 L 14196.911,133799.31 L 14139.991,133254.62 L 14283.308,132996.45 L 14456.1,132766.63 L 14369.704,132537.82 L 14399.18,132451.76 L 14427.64,132365.7 L 14686.829,132165.24 L 14628.893,131935.42 L 14859.622,131791.65 L 15003.954,131791.65 L 15118.81,131648.9 L 15032.414,131362.38 L 15320.063,131218.61 L 15406.459,131046.5 L 15406.459,130616.21 L 15607.712,130301.34 L 15665.648,129871.06 L 15924.837,129526.83 L 16011.233,128637.91 L 17220.781,127605.22 L 17104.908,127347.05 L 17162.844,127174.94 L 17249.241,127146.59 L 17422.033,126916.77 L 17623.286,126860.07 L 17824.538,126458.13 L 17709.682,126027.85 L 17738.142,125855.73 L 17997.331,125511.51 L 17796.078,125138.93 L 18141.663,124565.89 L 18141.663,124106.24 L 18285.996,123991.84 L 17968.871,123533.2 L 18256.52,123217.32 L 18458.789,123275.03 L 18573.645,123217.32 L 18545.185,123074.57 L 18170.123,122816.4 L 18400.852,122271.71 L 18602.105,122185.65 L 18660.041,121984.18 L 18429.312,121841.42 L 18630.565,121669.31 L 18688.501,121497.19 L 18746.437,121239.02 L 18688.501,121066.91 L 18803.357,121038.56 L 18976.15,121124.62 L 19178.419,120866.45 L 19148.942,120780.39 L 18716.961,120522.22 L 18803.357,120436.16 L 19235.339,120292.39 L 19206.879,120177.99 L 18919.23,120034.22 L 18774.897,119776.05 L 18889.753,119719.36 L 19120.482,119575.59 L 19092.022,119203.01 L 19351.211,119059.25 L 19466.067,118744.38 L 19466.067,118342.44 L 19725.256,118228.04 L 19695.78,117941.52 L 19840.112,118026.56 L 19926.509,117969.86 L 19868.572,117740.04 L 20070.841,117453.52 L 19782.176,117137.64 L 19926.509,117023.24 L 20012.905,117137.64 L 20099.301,117167 L 20127.761,116965.53 L 20012.905,116650.66 L 20157.238,116306.43 L 20416.426,116278.08 L 20416.426,116134.32 L 20416.426,115732.38 L 20675.615,115732.38 L 20876.868,115617.97 L 20876.868,115589.63 L 20617.679,115475.22 L 20646.139,115389.16 L 20704.075,115303.11 L 21078.12,115475.22 L 21192.976,115417.51 L 21136.056,115245.4 L 21250.913,115101.63 L 21596.498,115015.57 L 21682.894,114929.52 L 21624.958,114729.05 L 21913.623,114700.71 L 22028.479,114586.3 L 22028.479,114212.71 L 22143.335,113983.9 L 22402.524,113983.9 L 22603.777,114098.31 L 23294.947,113524.26 L 23381.343,113209.39 L 23755.388,113094.98 L 24215.829,113094.98 L 24388.622,113065.62 L 24619.351,112893.51 L 25166.188,113008.92 L 25396.917,112779.1 L 25569.71,112664.7 L 25828.899,112520.93 L 26058.611,112779.1 L 26058.611,112922.87 L 26174.484,112951.22 L 26490.592,112578.64 L 26951.034,112377.16 L 27181.762,112033.95 L 27613.744,111689.72 L 27642.204,111689.72 L 27814.996,111861.83 L 28016.249,111861.83 L 28275.438,111689.72 L 29225.797,111431.55 L 29571.382,111459.9 L 29830.57,111574.3 L 30146.679,111632.01 L 30751.453,111287.78 L 31068.578,111316.13 L 31414.163,110972.91 L 31557.479,110972.91 L 31874.605,111001.26 L 32133.793,110829.15 L 32594.235,110685.38 L 32795.487,110714.74 L 32911.36,110685.38 L 33026.216,110312.81 L 33227.468,110084 L 33428.721,109682.06 L 33544.594,109624.35 L 33860.702,109710.41 L 34177.827,109596 L 34321.144,109337.83 L 34551.872,109137.37 L 34523.413,108993.6 L 34638.269,108764.79 L 35243.043,108563.32 L 35357.899,108190.74 L 36049.069,108420.56 L 36193.402,108563.32 L 37056.348,108219.09 L 37373.473,108879.2 L 37775.978,109021.95 L 37948.771,108907.54 L 38035.167,108965.25 L 38323.832,108965.25 L 38525.084,108133.03 L 38697.877,107990.28 L 38899.129,107502.28 L 39043.462,107387.88 L 39273.174,107359.53 L 39417.507,107129.7 L 39964.345,106957.59 L 40424.786,106240.79 L 40424.786,106068.67 L 40799.847,105810.5 L 40972.64,105581.69 L 41144.416,105122.04 L 41173.892,105122.04 L 41979.919,105007.64 L 42066.315,104949.93 L 42296.028,104405.24 L 42613.153,104118.72 L 42843.881,104090.37 L 42958.738,103946.6 L 43447.639,103602.38 L 44052.413,103458.61 L 44628.727,102999.98 L 44974.312,102799.51 L 45376.817,102627.4 L 45750.862,102655.75 L 46471.508,102369.23 L 46845.553,102599.05 L 47075.266,102569.69 L 47507.247,101910.59 L 47795.912,101480.31 L 47795.912,101394.25 L 47709.516,100935.62 L 47795.912,100591.39 L 48025.625,100275.51 L 48083.561,99846.235 L 48399.67,99846.235 L 48688.335,99846.235 L 49378.489,99042.361 L 49464.885,98325.555 L 49667.154,98182.802 L 50069.659,98211.15 L 50127.595,98125.093 L 50069.659,97552.054 L 50098.119,97436.636 L 50415.244,96949.654 L 50905.162,96748.179 L 51164.35,96232.849 L 51336.127,96031.374 L 51451.999,96146.792 L 51480.459,96490.008 L 51595.315,96605.426 L 51739.648,96490.008 L 51826.044,96203.488 L 51480.459,95687.145 L 51451.999,95515.031 L 51480.459,95400.626 L 51566.855,95342.917 L 52056.773,95342.917 L 52315.962,95773.203 L 52487.738,95773.203 L 52746.927,95458.335 L 52718.467,94913.644 L 52862.799,94540.055 L 53121.988,94569.415 L 53323.241,94367.94 L 54359.996,94281.883 L 54762.501,93995.364 L 54993.23,93938.667 L 55252.419,94167.478 L 55338.815,94483.358 L 55598.004,94626.112 L 55741.32,94597.764 L 55942.572,94253.535 L 56058.445,94195.826 L 56834.995,94311.244 L 57439.769,93794.901 L 58217.335,93594.439 L 58504.984,93392.964 L 58649.317,93192.501 L 58649.317,93164.153 L 58735.713,93048.735 L 58764.173,93048.735 L 58822.109,93048.735 L 59254.091,93306.907 L 59570.199,93020.387 L 59742.992,93048.735 L 60319.306,93078.096 L 60606.954,92962.678 L 60721.811,92962.678 L 60837.683,92992.039 L 61010.476,93192.501 L 61585.773,93134.793 L 61931.358,93220.85 L 62391.8,93422.325 L 62765.845,93794.901 L 63284.222,93995.364 L 63629.808,94311.244 L 63802.6,94281.883 L 63831.06,94281.883 L 63917.456,94109.769 L 64061.789,94109.769 L 64148.185,94139.13 L 64234.581,94195.826 L 64320.978,94281.883 L 64378.914,94425.649 L 64493.77,94884.283 L 64666.563,95056.397 L 65386.193,95286.22 L 65673.842,95486.683 L 65789.714,95744.854 L 65961.49,96089.083 L 66537.804,96347.254 L 66595.741,96318.906 L 66825.453,96175.14 L 67401.767,96289.545 L 67631.479,96232.849 L 67862.208,96031.374 L 68035.001,96060.735 L 68121.397,95687.145 L 68668.235,95716.506 L 69013.82,95228.512 L 69964.179,95286.22 L 70625.872,95200.163 L 70999.918,94941.992 L 71288.583,94540.055 L 71403.439,94511.706 L 72353.798,94453.998 L 73159.824,94569.415 L 73505.409,94884.283 L 73678.202,94884.283 L 74023.787,94827.587 L 74599.084,94597.764 L 75145.922,94081.421 L 75519.967,94109.769 L 75895.028,94367.94 L 76240.614,94425.649 L 76729.515,94311.244 L 76988.704,94225.187 L 77219.432,94024.724 L 77507.081,93422.325 L 78168.775,93078.096 L 78859.945,92303.582 L 78974.801,91787.239 L 78974.801,91758.891 L 78917.881,91529.068 L 79205.53,90611.8 L 79637.512,90067.109 L 79665.972,89779.577 L 79551.115,89264.247 L 79953.62,88661.847 L 79637.512,88575.79 L 79637.512,88489.733 L 79637.512,88432.024 L 79694.431,88259.91 L 79723.908,88231.562 L 80040.017,88059.447 L 80040.017,88031.099 L 79983.097,87600.814 L 80011.557,87228.237 L 79838.764,86740.242 L 79810.304,86482.071 L 80270.745,85851.323 L 80299.205,85822.975 L 80299.205,85392.689 L 80415.078,85134.518 L 80875.519,84761.941 L 80932.439,84646.523 L 80760.663,84360.004 L 80357.142,84560.466 L 80212.809,84474.409 L 80443.538,83959.079 L 80529.934,83385.027 L 80328.682,83012.45 L 80328.682,82696.57 L 80270.745,82610.513 L 80069.493,82266.285 L 80040.017,82237.936 L 79896.7,82123.531 L 79406.783,82037.474 L 78917.881,81779.303 L 78543.836,81320.669 L 78111.855,81205.251 L 77736.794,80976.44 L 77593.478,80718.269 L 77420.685,79886.046 L 77420.685,79857.698 L 77362.749,79771.641 L 77189.956,79599.526 L 76757.975,79427.412 L 76240.614,79427.412 L 75865.552,79169.241 L 75635.84,78510.144 L 75290.255,78137.568 L 75290.255,77850.036 L 75347.174,77763.979 L 75664.3,77535.168 L 75779.156,77419.75 L 75808.632,77333.693 L 75865.552,77190.939 L 75865.552,76732.306 L 75865.552,76702.945 L 75750.696,76560.191 L 75347.174,76302.02 L 75145.922,75986.14 L 75145.922,75957.792 L 75031.066,75671.272 L 75002.606,75068.872 L 74829.813,74810.701 L 74743.417,74666.935 L 74743.417,74610.238 L 75203.858,73892.421 L 75232.318,73778.015 L 74800.337,72975.153 L 74800.337,72917.444 L 74916.21,72430.462 L 74771.877,72114.582 L 74685.481,71483.834 L 74800.337,71025.2 L 74858.273,70939.143 L 75174.382,70939.143 L 75232.318,70709.32 L 75002.606,69591.59 L 75117.462,68759.367 L 75117.462,68702.67 L 74916.21,68444.499 L 74743.417,68444.499 L 74858.273,68014.213 L 74916.21,67870.447 L 75174.382,67669.985 L 75895.028,67497.871 L 76211.137,67497.871 L 76383.93,67211.351 L 76470.326,66781.065 L 76902.307,66350.78 L 77133.036,65547.917 L 77593.478,65059.923 L 77621.937,64917.169 L 77766.27,64286.421 L 77766.27,64228.712 L 77881.126,64142.655 L 78600.756,63942.193 L 78773.549,63712.37 L 79004.278,63053.273 L 79090.674,62967.216 L 79205.53,62881.159 L 79723.908,62851.799 L 80011.557,62565.279 L 80126.413,62336.468 L 80760.663,62048.936 L 80990.376,61848.474 L 81105.232,61533.606 L 81307.501,60787.44 L 81335.961,60500.921 L 81307.501,60357.155 L 80990.376,59525.944 L 80961.916,59267.773 L 81595.149,58464.91 L 81653.086,58092.334 L 81537.213,57346.168 L 81307.501,56887.534 L 81163.168,56026.963 L 80789.123,55568.329 L 80731.187,55482.272 L 80644.79,55166.392 L 80644.79,54593.352 L 80242.285,53474.61 L 80184.349,53274.147 L 80357.142,52442.937 L 80040.017,52213.114 L 80011.557,52098.708 L 79522.655,51466.948 L 79406.783,51295.846 L 79464.719,50607.389 L 79378.323,50263.161 L 78457.44,49516.995 L 78399.504,49460.298 L 78168.775,49058.361 L 78168.775,49001.665 L 78198.251,48513.67 L 78715.613,48141.093 L 78831.485,47825.213 L 78773.549,47480.985 L 78341.568,47166.117 L 78168.775,46994.003 L 78053.919,46735.831 L 78226.711,46391.603 L 78572.296,46133.431 L 78859.945,45903.608 L 78888.405,45903.608 L 79061.198,45674.798 L 79694.431,44613.764 L 79896.7,44269.535 L 80011.557,43983.016 L 80040.017,43839.25 L 79896.7,43208.502 L 80212.809,42720.507 L 80242.285,42405.64 L 80385.602,42261.874 L 80415.078,42205.177 L 80443.538,42033.063 L 80443.538,41947.006 L 80357.142,41860.949 L 79838.764,41545.068 L 79810.304,41258.549 L 79953.62,40742.206 L 79579.575,40340.269 L 78687.153,39709.521 L 78600.756,39681.172 L 78572.296,39652.824 L 78140.315,39767.229 L 77967.523,39681.172 L 77852.666,39537.406 L 77881.126,39022.076 L 77881.126,38562.43 L 77449.145,37788.928 L 77392.225,37501.396 L 77305.829,36784.591 L 77276.352,36268.248 L 77420.685,35809.614 L 78371.044,34720.233 L 78457.44,34634.175 L 78485.9,34605.827 L 78687.153,34490.409 L 79579.575,34462.061 L 79609.052,34261.599 L 79205.53,33917.37 L 79233.99,33745.256 L 79406.783,33573.142 L 79838.764,33401.028 L 80155.889,32999.09 L 80299.205,32654.862 L 80616.331,31737.594 L 80731.187,31537.132 L 81048.312,30704.909 L 81249.564,30590.503 L 81480.293,30820.326 L 81653.086,30790.966 L 81767.942,30446.737 L 81882.798,29988.103 L 81940.734,29902.046 L 81997.654,29873.698 L 83005.95,29156.893 L 83293.598,28812.664 L 83351.535,28440.088 L 83379.995,28181.916 L 83408.455,28009.802 L 84214.481,26432.426 L 84358.814,26318.02 L 84531.606,26145.906 L 84618.002,26059.849 L 84387.274,25772.317 L 84272.417,25429.101 L 84300.877,25371.392 L 84387.274,25227.626 L 84560.066,24941.107 L 84618.002,24654.587 L 84300.877,24052.187 L 84272.417,23851.725 L 84300.877,23851.725 L 84300.877,23765.668 L 84445.21,23421.439 L 84877.191,22905.096 L 85366.092,22417.102 L 85625.281,22274.348 L 85769.614,22044.525 L 85798.074,21958.468 L 85970.866,21356.068 L 86374.388,21127.258 L 86806.369,20983.492 L 87036.082,20668.624 L 87640.855,19922.458 L 87727.252,19779.704 L 87698.792,19549.881 L 87669.315,19377.767 L 87813.648,19205.653 L 88332.026,18890.785 L 88389.962,18374.442 L 88504.818,18172.967 L 88649.151,18202.328 L 88764.007,18202.328 L 88792.467,18689.31 L 88792.467,18718.671 L 89080.116,19005.19 L 89195.988,19033.538 L 89252.908,19033.538 L 89425.701,19033.538 L 89656.43,18890.785 L 90030.475,18345.081 L 90231.727,18316.733 L 90376.06,18431.139 L 90404.52,18747.019 L 90548.852,18804.728 L 90779.581,18747.019 L 90808.041,18747.019 L 90951.357,18460.499 L 90951.357,18172.967 L 91383.339,18288.385 L 91815.32,18202.328 L 92362.157,17858.099 L 92592.886,17914.796 L 93082.804,18288.385 L 93312.516,18259.024 L 93686.561,18086.91 L 94377.732,17828.739 L 95126.838,17914.796 L 95299.631,17743.694 L 95241.694,17886.448 L 95414.487,17657.637 L 95386.027,17197.991 L 95587.279,16969.18 L 95673.676,16911.471 L 96451.242,16797.066 L 96680.954,16136.957 L 97084.476,15994.203 L 97084.476,15936.495 L 96998.08,15764.38 L 97055,15477.861 L 97141.396,15277.398 L 97343.665,15105.284 L 97631.313,15047.575 L 97717.71,14875.461 L 97717.71,14817.752 L 97688.233,14731.695 L 97602.854,14645.638 L 97486.981,14617.29 L 96911.683,14559.581 L 96853.747,14330.77 L 96968.603,14216.365 L 97285.728,13900.484 L 98178.151,13814.427 L 98408.88,13700.022 L 99243.366,13527.908 L 99703.808,13556.256 L 99934.536,13412.49 L 100308.58,13011.565 L 100423.44,12897.16 L 100509.83,12753.394 L 100596.23,12323.108 L 100769.02,12008.24 L 100941.82,11978.88 L 101229.46,12237.051 L 101345.34,12179.342 L 101373.8,11462.537 L 101431.73,11319.783 L 101661.45,11033.264 L 101632.99,10545.269 L 101719.38,10373.155 L 101920.64,10172.692 L 102237.76,10114.984 L 102467.47,9942.8694 L 102928.93,9254.4124 L 103101.72,8967.8928 L 103791.88,8623.6643 L 103964.67,8451.5501 L 104195.4,7591.9913 L 104253.34,7476.5736 L 104597.9,7103.9969 L 104597.9,7046.288 L 104454.59,6616.0024 L 104339.73,6444.9006 L 103705.48,5956.9061 L 103562.17,5842.5007 L 103188.12,5383.8669 L 103015.33,5010.2778 L 103130.18,4523.2957 L 103101.72,4006.953 L 103532.69,3834.8388 L 103590.63,3691.0728 L 103446.29,3404.5532 L 103389.37,2659.3998 L 103964.67,2257.4624 L 104195.4,1884.8857 L 104483.05,2085.3482 L 104857.09,2573.3427 L 105663.12,3318.4961 L 106008.7,3462.2621 L 106153.04,3346.8443 L 107189.79,4293.4726 L 107765.09,4666.0493 L 107823.03,4838.1635 L 108341.4,5268.4491 L 109262.29,5698.7347 L 109549.93,5756.4436 L 110011.39,5612.6776 L 110039.85,5526.6205 L 110644.63,5813.1401 L 111163,5842.5007 L 111507.57,5584.3294 L 111824.7,5498.2723 L 112659.18,5698.7347 L 112775.06,5813.1401 L 112831.98,5784.7918 L 112831.98,5842.5007 L 112889.91,5727.083 L 113263.96,5813.1401 L 113695.94,5670.3865 L 114272.25,5985.2543 L 114445.05,5956.9061 L 115106.74,6215.0774 L 115251.07,6071.3114 L 115480.78,6071.3114 L 115452.32,6702.0595 L 115480.78,6817.4773 L 115538.72,6903.5344 L 116027.62,7161.7058 L 116373.21,7132.3451 L 116632.4,7218.4022 L 116690.33,7534.2825 L 116977.98,7992.9163 L 117006.44,8308.7965 L 117150.77,8537.6072 L 117035.92,8595.3161 L 117035.92,8739.0821 L 116891.59,8996.241 L 116891.59,9140.0071 L 116863.13,9426.5266 L 116977.98,9512.5838 L 116977.98,9914.5211 L 116718.79,10028.926 L 116632.4,10201.041 L 116316.29,10258.75 L 116316.29,10487.56 L 115999.16,10831.789 L 115538.72,11233.726 L 115538.72,11319.783 L 115337.47,11606.303 L 115480.78,12008.24 L 113983.59,14531.232 L 113695.94,15191.341 L 113753.88,15420.152 L 113408.29,15706.671 L 113321.89,15908.146 L 113149.1,16338.432 L 113263.96,16395.128 L 113638,16223.014 L 113667.48,16567.243 L 113609.54,16997.528 L 113840.27,17055.237 L 113955.13,17370.105 L 114703.22,17313.408 L 114876.01,17427.814 L 114962.41,17513.871 L 114991.88,18000.853 L 114876.01,18288.385 L 115307.99,18603.253 L 115337.47,19119.596 L 115423.86,19205.653 L 115452.32,19234.001 L 115683.05,19119.596 L 115999.16,19177.304 L 115510.26,19320.058 L 115423.86,19463.824 L 115394.39,20208.977 L 115135.2,20610.915 L 114501.97,20696.972 L 114445.05,20811.377 L 114358.65,20926.795 L 114358.65,21098.909 L 114559.9,21299.372 L 114962.41,21413.777 L 115279.53,22246 L 115078.28,23307.034 L 114991.88,23421.439 L 115020.34,23535.844 L 115365.93,23679.61 L 115797.91,23621.902 L 116200.41,23736.307 L 116459.6,23994.478 L 117006.44,24052.187 L 117381.5,24252.65 L 117381.5,24454.124 L 117092.84,24510.821 L 116977.98,24654.587 L 116891.59,25313.683 L 117035.92,25715.621 L 116805.19,26088.197 L 115970.7,26891.06 L 116085.56,26977.117 L 116286.81,26776.654 L 116373.21,26891.06 L 116517.54,26862.711 L 116718.79,27292.997 L 116661.87,27493.459 L 116718.79,27693.922 L 116891.59,27779.979 L 116920.04,27894.384 L 117179.23,28210.265 L 117237.17,28496.784 L 117611.22,28841.013 L 117813.48,29529.47 L 117611.22,30160.218 L 117524.82,30131.869 L 117467.9,30217.927 L 117352.03,30390.041 L 117265.63,30418.389 L 117265.63,30562.155 L 117150.77,30648.212 L 117237.17,31020.789 L 117381.5,31221.251 L 117381.5,31250.612 L 117035.92,31507.771 L 117035.92,31709.246 L 117122.31,31737.594 L 117496.36,31565.48 L 117813.48,31479.423 L 118071.66,31479.423 L 118302.39,31307.308 L 118446.72,31365.017 L 118647.97,31307.308 L 118676.43,31307.308 L 118705.91,31479.423 L 118935.62,31623.189 L 119194.81,31593.828 L 119598.33,31737.594 L 120116.71,31709.246 L 120231.56,31823.651 L 120260.02,32081.823 L 119943.91,32282.285 L 120058.77,32654.862 L 119684.73,33601.49 L 119626.79,33687.547 L 119568.85,33745.256 L 119914.44,34089.485 L 119972.37,34404.352 L 120145.17,34690.872 L 120778.4,34806.29 L 120605.61,35064.461 L 120577.15,35064.461 L 119741.65,36239.9 L 120145.17,38075.448 L 120116.71,38333.619 L 120116.71,38476.373 L 119799.58,38706.196 L 119454,39336.944 L 119194.81,39652.824 L 119194.81,39824.938 L 119194.81,40311.92 L 118792.3,41028.726 L 118820.76,41172.492 L 118792.3,41659.474 L 118533.11,42119.12 L 118503.64,42720.507 L 118187.53,43036.388 L 118101.13,43495.021 L 117956.8,43581.079 L 117784.01,43925.307 L 117352.03,43953.655 L 117295.11,44011.364 L 117467.9,44069.073 L 117697.61,44155.13 L 117784.01,44241.187 L 117784.01,44327.244 L 117697.61,44527.707 L 117524.82,44900.284 L 117611.22,45130.107 L 118215.99,45560.392 L 118619.51,46105.083 L 118849.22,46219.489 L 118878.7,46219.489 L 118215.99,47022.351 L 117611.22,47624.751 L 117438.42,47854.574 L 117467.9,48055.036 L 117122.31,48283.847 L 117179.23,48399.265 L 117352.03,48485.322 L 117985.26,48628.075 L 118101.13,48743.493 L 118043.2,48886.247 L 117755.55,49058.361 L 117524.82,49374.241 L 117524.82,49632.413 L 117323.57,49775.166 L 117323.57,49804.527 L 117381.5,50521.332 L 117150.77,50865.561 L 117640.69,51381.903 L 117467.9,51696.771 L 117755.55,52184.766 L 117784.01,52413.576 L 117813.48,52471.285 L 118043.2,52471.285 L 118071.66,52643.399 L 118187.53,52729.456 L 118330.85,52442.937 L 118417.24,52471.285 L 118734.37,52671.748 L 119396.06,53704.433 L 119511.93,53704.433 L 119626.79,53532.319 L 119713.19,53532.319 L 119771.12,53818.838 L 119771.12,53847.187 L 120058.77,54077.01 L 120087.23,54421.238 L 119857.52,54994.277 L 120634.07,55109.695 L 120663.54,55281.809 L 120836.34,55367.867 L 120864.8,55568.329 L 121009.13,55682.734 L 121037.59,55969.254 L 121670.82,56256.786 L 121930.01,55969.254 L 122074.34,55969.254 L 122247.14,56399.54 L 122534.79,56313.482 L 122591.71,56715.42 L 123139.56,57059.648 L 123254.42,57403.877 L 123427.21,57317.82 L 123686.4,57317.82 L 124031.98,57718.745 L 124291.17,57718.745 L 124492.42,57834.162 L 124578.82,58062.973 L 124434.49,58493.259 L 124665.22,59095.658 L 124175.3,59410.526 L 124578.82,59698.058 L 124693.68,59812.464 L 124894.93,60070.635 L 124894.93,60098.983 L 124607.28,60185.04 L 124665.22,60414.863 L 124550.36,60643.674 L 124607.28,60759.092 L 124866.47,60959.554 L 124838.01,61217.726 L 124722.14,61648.011 L 124406.03,61906.183 L 124377.57,61934.531 L 124319.63,62307.108 L 124492.42,62508.583 L 124780.07,62881.159 L 124894.93,63253.736 L 124751.61,63454.198 L 124291.17,63454.198 L 124175.3,63540.256 L 124204.78,63655.673 L 124319.63,63970.541 L 124319.63,63998.889 L 124434.49,64056.598 L 124665.22,64228.712 L 124780.07,64601.289 L 124722.14,64773.403 L 124492.42,65003.227 L 124492.42,65203.689 L 124406.03,65404.151 L 124492.42,65547.917 L 124492.42,65777.741 L 124319.63,65978.203 L 124434.49,66207.014 L 124406.03,66494.546 L 124838.01,66924.831 L 124866.47,67469.522 L 125067.72,67784.39 L 125125.66,68042.561 L 124981.33,68644.961 L 124894.93,68989.19 L 124492.42,69132.956 L 124261.7,69361.767 L 124463.96,69648.286 L 124520.88,70107.932 L 124578.82,70193.989 L 124838.01,70594.914 L 124751.61,70996.852 L 124924.41,71483.834 L 125010.8,72172.291 L 124952.87,72860.748 L 125039.26,73405.439 L 125298.45,74208.301 L 125212.05,74610.238 L 125615.58,75011.163 L 125758.89,76272.659 L 125730.43,76302.02 L 125442.78,76646.249 L 125413.31,76904.42 L 125356.39,77018.825 L 125067.72,77363.054 L 124981.33,77850.036 L 125010.8,77936.093 L 125039.26,77936.093 L 125097.2,78022.15 L 125529.18,77965.454 L 125758.89,78165.916 L 126104.48,79255.298 L 126132.94,79313.007 L 126363.67,79915.407 L 126305.73,80287.983 L 126219.33,80688.908 L 126248.81,80774.965 L 126248.81,80918.731 L 126363.67,81549.479 L 126248.81,82037.474 L 126910.5,82811.988 L 127198.15,83471.084 L 127342.48,83614.85 L 127746.01,83901.37 L 127774.47,83959.079 L 127889.32,84331.655 L 127918.8,84618.175 L 127918.8,84761.941 L 127918.8,84790.289 L 127659.61,85421.037 L 127457.34,85650.86 L 127342.48,85909.032 L 127543.74,86711.894 L 127601.67,87399.339 L 127515.28,87715.219 L 127659.61,88345.967 L 127659.61,88403.676 L 127630.13,88661.847 L 127746.01,88920.019 L 128695.35,89894.995 L 128926.08,90669.509 L 128926.08,90726.206 L 129242.19,91070.434 L 129213.73,91184.839 L 129012.47,91931.005 L 129070.41,92017.062 L 129501.37,92417.987 L 130883.71,92475.696 L 131287.24,92962.678 L 131747.68,93250.21 L 131862.53,93306.907 L 132869.81,93450.673 L 133935.03,93680.496 L 134482.88,93708.844 L 134885.39,93766.553 L 134971.78,94024.724 L 135259.43,94281.883 L 135317.37,94425.649 L 135432.22,94913.644 L 135634.49,95056.397 L 135720.89,95428.974 L 135893.68,95572.74 L 136238.25,95572.74 L 136526.92,95342.917 L 136872.5,95200.163 L 137303.47,95342.917 L 137303.47,95458.335 L 137045.29,95716.506 L 137045.29,95744.854 L 136929.42,95945.317 L 136555.38,96203.488 L 136411.04,96490.008 L 136324.65,96576.065 L 135979.06,96748.179 L 135950.6,97236.174 L 135864.21,97552.054 L 136037,98383.264 L 136037,98440.973 L 135950.6,98699.145 L 135950.6,99760.178 L 136354.12,99846.235 L 136468.98,99988.989 L 135979.06,100218.81 L 135979.06,100304.87 L 135777.81,100247.16 L 135864.21,100419.27 L 135922.14,100476.98 L 135950.6,100505.33 L 136008.54,100563.04 L 135979.06,100649.1 L 135634.49,100993.33 L 135605.02,101164.43 L 135259.43,101680.77 L 135029.72,101882.25 L 135000.24,102025 L 134569.28,102599.05 L 134684.13,102943.28 L 134424.95,103774.49 L 134453.41,104061.01 L 134310.09,104204.78 L 134079.36,105093.69 L 133992.96,106183.08 L 134050.9,106813.82 L 133906.57,107101.36 L 133388.19,107531.64 L 133388.19,107818.16 L 133215.4,108907.54 L 130825.78,109854.17 L 130710.92,110112.34 L 130682.46,110140.69 L 130393.8,110284.46 L 129617.25,110427.21 L 129444.45,110771.44 L 129414.98,111087.32 L 129414.98,111145.03 L 129876.44,112262.76 L 129962.83,112377.16 L 130768.86,113381.5 L 130825.78,113495.91 L 130912.17,113610.31 L 131028.05,113868.48 L 131028.05,114126.65 L 130970.11,114614.65 L 130941.65,114786.76 L 130538.13,115704.03 L 130250.48,116564.6 L 130336.88,117395.81 L 130797.32,117855.46 L 131373.63,118112.62 L 132610.62,118428.5 L 132869.81,118572.26 L 133042.61,118715.02 L 133244.87,118944.84 L 133331.27,119088.61 L 133417.67,119547.24 L 133446.13,119833.76 L 133301.79,121669.31 L 133301.79,121898.12 L 133301.79,122070.23 L 132582.16,123589.9 L 132438.85,123905.78 L 132063.79,124736.99 L 131948.93,125253.33 L 132121.72,125597.56 L 132236.58,125712.98 L 132266.06,126056.2 L 132006.87,126199.96 L 132006.87,126343.73 L 131315.7,126085.56 L 131287.24,126085.56 L 131142.9,126257.67 L 131056.51,126314.37 L 131028.05,126515.84 L 130682.46,126486.48 L 130509.67,126601.9 L 130451.73,126946.13 L 130308.42,127117.23 L 130106.15,127203.29 L 129876.44,127490.82 L 129732.1,127547.52 L 129587.77,127977.8 L 129530.85,128035.51 L 129070.41,128063.86 L 128897.62,128121.57 L 128724.82,128408.09 L 128292.84,128494.14 L 128263.37,128494.14 L 128176.97,128608.55 L 127832.4,128752.32 L 127832.4,128810.02 L 127947.26,129469.12 L 127860.86,129612.89 L 127889.32,129698.94 L 127918.8,129813.35 L 127774.47,129927.75 L 127630.13,130215.29 L 126996.9,130271.98 L 127025.36,130472.45 L 126939.98,130644.56 L 126996.9,131218.61 L 126594.39,131648.9 L 126104.48,131619.54 L 126132.94,131505.13 L 126018.08,131276.32 L 125816.83,131132.55 L 125326.91,131104.21 L 125298.45,131104.21 L 125212.05,131333.02 L 125326.91,131419.07 L 125384.85,131763.3 L 125269.99,131907.07 L 124981.33,132049.82 L 125125.66,132251.3 L 125097.2,132594.51 L 124838.01,132910.39 L 124550.36,133140.22 L 124291.17,132882.04 L 123859.19,132623.87 L 123829.71,132537.82 L 123656.92,132451.76 L 123656.92,132365.7 L 123312.35,132049.82 L 123023.69,132079.18 L 122850.89,132079.18 L 122850.89,132107.53 L 122707.58,132566.16 L 121958.47,132824.34 L 121757.22,133196.91 L 121699.28,133943.08 L 121066.05,133741.6 L 120951.19,134287.31 L 120778.4,134659.88 L 120605.61,134860.35 L 120490.75,134888.69 L 120317.96,135146.87 L 120058.77,135290.63 L 119943.91,135318.98 L 119771.12,135146.87 L 119454,135146.87 L 119367.6,135434.4 L 119051.49,136121.84 L 118993.56,136293.96 L 118762.83,136409.37 L 118734.37,136523.78 L 118302.39,136495.43 L 118215.99,136667.55 L 118014.74,136724.24 L 118101.13,136925.72 L 118129.59,137441.05 L 117870.4,137728.58 L 117496.36,137785.28 L 117381.5,137957.39 L 117035.92,138101.16 L 116286.81,138072.81 L 115854.83,138703.56 L 115768.43,138789.61 L 115135.2,139162.19 L 114646.3,139162.19 L 114387.11,139104.48 L 114214.32,139133.84 L 114156.38,139162.19 L 114099.46,139190.54 L 113810.8,139592.48 L 113695.94,140051.11 L 113408.29,140681.86 L 113149.1,141341.97 L 112976.31,141198.2 L 112256.68,141943.35 L 112025.95,142259.23 L 111680.37,142287.58 L 111537.05,142689.52 L 111334.78,142746.22 L 111277.86,142861.63 L 111163,143033.75 L 111219.92,143406.32 L 110960.74,143578.44 L 110874.34,143692.84 L 110673.09,144209.19 L 110385.44,144439.01 L 110385.44,144983.7 L 110039.85,145126.45 L 109895.52,145155.81 L 109809.12,144839.93 L 109493.02,144839.93 L 109348.68,144839.93 L 109175.89,144925.99 L 108974.64,144897.64 L 108888.24,145126.45 L 108629.05,145212.51 L 108571.12,145442.33 L 108456.26,145528.39 L 107505.9,145642.8 L 107505.9,145958.68 L 107276.19,146159.14 L 106267.89,146187.49 L 106153.04,146359.6 L 106066.64,146933.65 L 106095.1,147478.34 L 106008.7,148052.4 L 105461.87,148567.73 L 105087.82,148797.55 L 105029.89,148825.9 L 104511.51,149285.54 L 104511.51,149686.47 L 104080.54,150231.16 L 103648.56,151435.96 L 103475.77,151493.67 L 103158.64,151349.9 L 102899.46,151349.9 L 102583.35,151694.13 L 102179.82,151836.88 L 102007.03,152181.11 L 101834.24,152296.53 L 101661.45,152267.17 L 101373.8,152038.36 L 101114.61,151952.3 L 100913.36,151894.59 L 100567.77,151608.07 L 99934.536,151980.65 L 99444.619,151636.42 L 99416.159,151636.42 L 99128.51,151780.19 L 98754.465,151780.19 L 98408.88,151750.83 L 98408.88,151780.19 L 97631.313,152353.23 L 97170.872,152410.94 L 96795.811,152468.64 L 95816.992,152439.28 L 95500.883,152583.05 L 95213.234,152611.4 L 94781.253,152410.94 L 94751.777,152410.94 L 94723.317,152410.94 L 94349.272,152525.34 L 93888.83,152927.28 L 93772.958,153013.34 L 93284.056,152983.98 L 92765.679,153156.09 L 92707.743,153185.45 L 92621.346,153242.15 L 92478.03,153558.03 L 91786.86,153930.6 L 91700.464,154504.66 L 91642.527,154619.06 L 91469.735,154705.12 L 90808.041,155019.99 L 90289.663,155364.21 L 90231.727,155421.92 L 90116.871,155995.97 L 89972.538,156196.44 L 89799.746,156396.9 L 89598.493,156511.3 L 89080.116,156425.25 L 88878.863,156454.61 L 88764.007,156511.3 L 88677.611,156683.42 L 88792.467,156999.3 L 88649.151,157229.12 L 87986.441,157457.93 L 87353.207,157285.82 L 86892.765,157429.58 L 86489.244,157314.17 L 86287.991,157486.28 L 86115.199,157744.45 L 85683.218,158318.5 L 85452.489,158260.8 L 85251.236,158375.2 L 84935.128,158318.5 L 84503.146,158490.62 L 84473.67,158490.62 L 84099.625,158432.91 L 84099.625,158404.56 L 83667.643,158118.04 L 83494.851,158088.68 L 83437.931,158088.68 L 83408.455,158146.39 L 83494.851,158662.73 L 83149.266,158977.6 L 82919.553,159265.13 L 82573.968,159437.25 L 82487.572,159895.88 L 82401.176,160067.99 L 81537.213,160182.4 L 81134.708,160124.69 L 81105.232,159637.71 L 80932.439,159235.77 L 80903.979,158719.43 L 80760.663,158547.31 L 80558.394,158518.97 L 80155.889,158777.14 L 80126.413,158777.14 L 80011.557,158863.2 L 79983.097,158834.85 L 79896.7,158805.49 L 79436.259,158260.8 L 79177.07,157974.28 L 79119.134,157974.28 L 78658.693,158002.62 L 78255.171,157802.16 L 78140.315,157630.05 L 78111.855,157314.17 L 77881.126,156683.42 L 77881.126,156396.9 L 77995.982,155852.21 L 77967.523,155737.8 L 77881.126,155651.75 L 77650.397,155249.81 L 77305.829,155106.04 L 76873.847,155307.52 L 76757.975,155278.16 L 76729.515,155249.81 L 75779.156,155421.92 L 75722.236,155479.63 L 75664.3,155049.35 L 75635.84,155019.99 L 75491.507,154934.94 L 75318.715,155077.69 L 75290.255,155077.69 L 75117.462,155019.99 L 75059.526,154877.23 L 74829.813,154733.47 L 74627.544,154762.83 L 74541.148,154590.71 L 74454.752,154619.06 L 74311.436,154475.29 L 74253.499,154446.95 L 74167.103,154590.71 L 74052.247,154619.06 L 73965.851,154791.17 L 73648.725,154533 L 73389.537,154561.35 L 73015.492,155335.87 L 72611.97,155536.33 L 72468.654,155479.63 L 72295.862,155135.4 L 72267.402,155135.4 L 72237.925,155135.4 L 72008.213,155077.69 L 71777.484,155135.4 L 71460.359,155364.21 L 70913.521,155364.21 L 70770.205,155594.04 L 70625.872,155651.75 L 70481.54,155536.33 L 70251.827,155049.35 L 70165.431,154991.64 L 69791.386,154848.88 L 69445.801,154446.95 L 69359.405,154389.24 L 68898.964,154360.89 L 68437.506,153958.95 L 67977.064,153213.8 L 67747.352,152811.86 L 67199.498,152152.76 L 66911.849,151980.65 L 66682.137,151922.94 L 66422.948,151894.59 L 65875.094,151980.65 L 65616.922,152152.76 L 64982.671,152783.51 L 64608.626,152955.63 L 64551.707,152983.98 L 63975.393,153127.74 L 63831.06,153185.45 L 63370.619,153701.79 L 62881.717,154274.83 L 62708.925,154475.29 L 61758.566,155135.4 L 61269.665,155479.63 L 59800.928,155852.21 L 59368.947,156052.67 L 59081.298,156282.49 L 59081.298,156310.84 L 59023.362,156396.9 L 58994.902,156396.9 L 58677.777,156913.24 L 58245.795,157257.47 L 57526.165,158490.62 L 57469.245,158805.49 L 57728.434,159351.19 L 57698.958,159981.94 L 57901.227,160096.34 L 57901.227,160210.75 L 57756.894,160296.81 L 57728.434,160526.63 L 58073.003,160813.15 L 58707.253,161874.18 L 58793.649,162160.7 L 58822.109,162276.12 L 58735.713,162620.35 L 59023.362,163423.21 L 59426.883,163595.32 L 59570.199,163767.44 L 60492.098,164110.65 L 60549.018,164340.48 L 60779.747,164398.19 L 61125.332,164398.19 L 61355.045,164627 L 61787.026,164828.47 L 62046.215,165171.69 L 62046.215,165315.45 L 61758.566,165573.63 L 61730.106,165860.15 L 61499.377,166262.08 L 61096.872,166376.49 L 61038.936,166606.31 L 60837.683,166720.72 L 60751.287,166892.83 L 60837.683,167093.29 L 61125.332,167151 L 61183.268,167265.41 L 61211.728,167465.87 L 60894.603,168097.63 L 61326.585,168470.21 L 61758.566,168642.32 L 61758.566,168670.67 L 61844.962,168986.55 L 61672.17,169587.94 L 61183.268,169903.82 L 61153.792,170248.05 L 61125.332,170649.98 L 60289.829,170534.57 L 59599.676,170592.27 L 59455.343,170706.68 L 59282.551,171136.97 L 59426.883,171509.54 L 59455.343,171968.18 L 59167.694,173029.21 L 58735.713,173689.32 L 57843.29,174606.59 L 57814.83,174664.29 L 57814.83,174894.12 L 57814.83,175008.52 L 57901.227,175266.69 L 57814.83,175869.09 L 57584.101,176155.61 L 57037.264,176470.48 L 56720.139,176786.36 L 56490.426,177044.53 L 56374.554,177360.41 L 56058.445,177703.63 L 56028.969,178535.85 L 56000.509,178650.26 L 55942.572,178650.26 L 55425.211,178678.61 L 54935.294,178650.26 L 54273.6,178363.74 L 53928.015,178191.62 L 53668.826,178191.62 L 53409.637,178449.8 L 53409.637,178507.5 L 53265.304,179108.89 L 53496.033,179825.7 L 53409.637,179997.81 L 53150.448,180227.63 L 52919.719,180514.15 L 52487.738,182033.82 L 52430.818,182235.3 L 52200.089,182407.41 L 51797.584,182493.47 L 51566.855,182607.87 L 51279.207,183152.56 L 51106.414,183439.08 L 51020.018,183525.14 L 50732.369,183640.56 L 50473.18,183668.91 L 50300.388,183668.91 L 50041.199,183439.08 L 50012.739,183410.74 L 49667.154,183324.68 L 49321.569,183038.16 L 49148.776,183038.16 L 48658.859,183296.33 L 48515.542,183296.33 L 48054.085,183238.62 L 47593.643,182837.7 L 47133.202,181977.12 L 46960.41,181776.66 L 46845.553,181690.61 L 46701.221,181632.9 L 46385.112,181518.49 L 46182.843,181518.49 L 45981.591,181690.61 L 45002.772,182751.64 L 44887.916,182837.7 L 44369.538,182980.45 L 43793.224,182837.7 L 43706.828,182866.04 L 43477.115,183038.16 L 43275.863,183382.39 L 43103.07,183611.2 L 42584.693,183812.67 L 42440.36,183841.02 L 42209.631,183841.02 L 42066.315,183783.31 L 41490.001,183353.03 L 40856.767,183296.33 L 40569.119,183410.74 L 40165.597,184041.48 L 40050.741,184185.25 L 39763.092,184385.71 L 39705.156,184414.06 L 39445.967,184443.42 L 39302.651,184443.42 L 38957.066,184471.77 L 38784.273,184643.88 L 38755.813,184758.29 L 38755.813,184816 L 38755.813,184844.35 L 38927.589,185733.27 L 38899.129,186135.2 L 38784.273,186365.03 L 38352.292,186565.49 L 37747.518,186393.37 L 37488.329,186536.13 L 37345.013,186593.84 L 36883.555,186880.36 L 36740.239,186995.77 L 36682.303,187396.7 L 36250.321,187368.35 L 36020.609,187482.76 L 35530.691,188343.33 L 35559.151,188773.61 L 35530.691,188830.31 L 35444.295,188916.37 L 35243.043,189031.78 L 34696.205,189576.47 L 34638.269,189548.13 L 34580.332,189490.42 L 34493.936,189232.25 L 34321.144,189232.25 L 34292.684,189260.59 L 33832.242,189634.18 L 33515.117,189634.18 L 33428.721,189805.29 L 33227.468,189862.99 L 32738.567,190235.57 L 31903.064,189576.47 L 31759.748,189432.71 L 31730.272,189376.01 L 31269.831,189203.9 L 31125.498,189289.96 L 30780.929,189232.25 L 30463.804,188801.96 L 30118.219,188658.19 L 30031.823,188487.09 L 29715.714,188401.04 L 29484.985,188199.56 L 29167.86,188199.56 L 28765.355,188343.33 L 28506.166,188228.92 L 28102.645,188171.21 L 27642.204,188171.21 L 26375.736,187999.1 L 26202.944,187941.39 L 26174.484,187913.04 L 26145.007,187683.22 L 25483.313,187769.28 L 25252.585,187540.46 L 25051.332,186823.66 L 24936.476,186679.89 L 24532.954,186479.43 L 23784.864,186365.03 L 22949.362,185704.92 L 22661.713,184443.42 L 22575.317,184241.95 L 22460.46,184070.84 L 22258.192,183841.02 L 22028.479,183754.96 L 21711.354,183697.25 L 21624.958,183697.25 L 21510.101,183611.2 L 21365.769,183496.79 L 21222.453,183266.97 L 21164.516,183124.22 L 21164.516,182149.24 L 20905.328,181661.24 L 21078.12,181346.38 L 21136.056,180972.79 L 20905.328,180543.51 L 21279.373,180113.23 L 21942.083,179568.54 L 22028.479,179338.71 L 22085.399,179166.6 L 21970.543,179052.2 L 21423.705,178678.61 L 21308.849,178163.28 L 21395.245,177474.82 L 21308.849,177158.94 L 20704.075,176671.96 L 20330.03,176127.27 L 20041.365,175897.44 L 19898.049,175811.39 L 19321.735,175467.16 L 19206.879,175237.33 L 19178.419,174549.89 L 19092.022,174320.07 L 18400.852,173861.43 L 18170.123,173517.2 L 18083.727,173115.27 L 18199.6,172570.58 L 18170.123,172083.59 L 17882.475,171681.66 L 17565.349,171423.48 L 17335.637,171366.79 L 16500.134,171767.71 L 16298.882,171797.07 L 15838.441,172226.35 L 15434.919,172398.46 L 15032.414,172484.52 L 14744.765,172398.46 L 14600.433,172456.17 L 14514.037,172484.52 L 14312.784,172828.75 L 14341.244,173144.63 L 14514.037,173631.61 L 14341.244,174147.95 L 14110.515,174406.12 L 12958.904,175036.87 L 11836.769,174836.41 L 11030.742,174377.78 L 9936.0505,174635.95 L 9475.6092,174836.41 z"
       class=""
     />

     <path
       id="bom-jesus" class="city" onmouseover="displayName('Bom Jesus')"
       d="M 24014.577,151464.31 L 25224.125,150432.63 L 25540.233,149944.64 L 25656.106,149628.76 L 26375.736,149055.72 L 26749.781,148539.38 L 26749.781,148367.26 L 26922.574,148224.51 L 27008.97,147850.92 L 27383.015,147592.75 L 27440.951,147392.29 L 27757.06,147077.42 L 27929.853,147048.06 L 27901.393,146962 L 28189.041,146647.13 L 28361.834,146589.43 L 29225.797,145786.56 L 29254.257,145987.03 L 29744.174,146531.72 L 44283.142,146675.48 L 45492.689,146589.43 L 45953.131,146819.25 L 46442.032,145470.68 L 47133.202,144581.76 L 47420.851,145155.81 L 47363.931,145184.16 L 47363.931,145298.57 L 47305.995,145270.22 L 47334.455,145442.33 L 47248.058,145442.33 L 47133.202,145700.51 L 47018.346,145556.74 L 47046.806,145642.8 L 46988.87,145586.1 L 46845.553,145700.51 L 46988.87,145786.56 L 46874.013,145814.91 L 46988.87,145987.03 L 46960.41,146044.73 L 46874.013,145987.03 L 46902.473,146273.54 L 46845.553,146216.85 L 46787.617,146273.54 L 46845.553,146417.31 L 46902.473,146359.6 L 46960.41,146561.08 L 48630.399,148023.04 L 57065.724,153099.39 L 59081.298,156282.49 L 58994.902,156396.9 L 53092.512,159351.19 L 49090.84,155737.8 L 45089.168,154217.12 L 44283.142,153816.2 L 42440.36,153156.09 L 42411.9,153414.26 L 42267.568,153558.03 L 42382.424,153672.43 L 42209.631,153902.26 L 42325.504,153958.95 L 42296.028,154160.43 L 42209.631,154188.77 L 42296.028,154246.48 L 42152.711,154332.54 L 42094.775,154590.71 L 37431.409,152066.71 L 35357.899,156511.3 L 28534.626,153471.97 L 24014.577,151464.31 z"
       />

     <path
       id="sao-raimundo" class="city" onmouseover="displayName('Sao Raimundo')"
       d="M 77420.685,139391 L 80875.519,138789.61 L 83293.598,138731.9 L 83120.806,141284.26 L 86086.739,139649.17 L 86776.893,143750.55 L 87122.478,144467.36 L 87957.981,143750.55 L 88706.071,144266.9 L 89944.078,144611.12 L 90577.312,144611.12 L 90693.185,144811.59 L 91527.671,143778.9 L 92102.969,144611.12 L 92534.95,145758.21 L 92333.698,146016.39 L 92218.841,146675.48 L 91268.482,146302.91 L 90462.456,146675.48 L 90462.456,146847.6 L 89886.142,147794.22 L 89570.033,149256.18 L 89425.701,149141.78 L 89080.116,148052.4 L 88907.323,147077.42 L 88044.377,147708.17 L 87727.252,147794.22 L 87582.919,147564.4 L 86374.388,147392.29 L 86259.532,148511.03 L 85452.489,147908.63 L 84560.066,149285.54 L 84416.75,150030.7 L 84272.417,150374.93 L 84330.354,150861.91 L 84243.957,151034.02 L 84416.75,151235.5 L 84300.877,151836.88 L 84445.21,152353.23 L 84330.354,152410.94 L 84214.481,152669.11 L 84416.75,152755.16 L 85194.316,153500.32 L 83379.995,153730.14 L 83149.266,153672.43 L 83178.742,154131.07 L 82170.447,154274.83 L 82027.131,152439.28 L 81508.753,152353.23 L 81018.835,152382.59 L 80932.439,152210.47 L 80932.439,151808.54 L 80875.519,151722.48 L 81623.609,150346.58 L 81335.961,149744.18 L 81710.006,149027.37 L 81595.149,148653.78 L 81163.168,147966.34 L 80069.493,147708.17 L 79522.655,146617.77 L 79320.386,146531.72 L 78946.341,145987.03 L 78773.549,145413.99 L 78427.964,145212.51 L 77995.982,144639.47 L 78082.379,143922.67 L 77823.19,142287.58 L 77535.541,141514.08 L 77420.685,139391 z"
       />

     <path
       id="campo-maior" class="city"
       d="M 91441.275,50004.989 L 92247.301,46363.255 L 93169.2,43552.73 L 93571.705,43495.021 L 93859.354,43695.484 L 94003.687,43983.016 L 93600.165,44269.535 L 93543.245,44527.707 L 93398.913,45272.86 L 93456.849,46506.008 L 92679.283,47624.751 L 92938.471,47596.402 L 93254.58,47710.808 L 93370.453,47968.979 L 93571.705,48055.036 L 93716.038,47968.979 L 94032.147,47997.327 L 94118.543,47796.865 L 94148.019,46879.597 L 93975.227,46277.197 L 93716.038,45903.608 L 94349.272,45903.608 L 94204.939,46047.374 L 94291.335,46219.489 L 94608.46,46247.837 L 94781.253,46191.14 L 94982.505,46363.255 L 94924.569,46563.717 L 95040.442,46850.237 L 94954.046,47050.699 L 95040.442,47080.06 L 95040.442,47280.522 L 95183.758,47366.579 L 95241.694,47596.402 L 95529.343,47538.694 L 95673.676,47108.408 L 95846.468,47166.117 L 95961.324,47252.174 L 95989.784,47424.288 L 96248.973,47596.402 L 96623.018,47480.985 L 96508.162,46994.003 L 97573.377,47538.694 L 97918.962,47194.465 L 98149.691,46333.894 L 98495.276,46075.723 L 98926.241,46277.197 L 99156.97,46707.483 L 99560.491,46793.54 L 99675.348,46936.294 L 100077.85,46994.003 L 100250.65,46964.642 L 100366.52,46850.237 L 100941.82,46793.54 L 101056.67,46735.831 L 101056.67,46621.426 L 102036.51,46707.483 L 102151.37,46735.831 L 102208.28,46879.597 L 102467.47,47108.408 L 102496.95,47366.579 L 102208.28,47567.042 L 102036.51,47854.574 L 101747.84,48026.688 L 101518.13,48399.265 L 101201,48369.904 L 100855.42,48485.322 L 100423.44,48455.961 L 100222.19,48743.493 L 100135.79,49030.013 L 99906.076,49058.361 L 99617.411,49374.241 L 99588.951,49718.47 L 99906.076,49918.932 L 99934.536,50177.104 L 99733.284,50549.68 L 99502.555,50635.737 L 99416.159,50807.852 L 97890.502,50377.566 L 98236.087,51094.371 L 98754.465,51782.828 L 98926.241,52327.519 L 98869.321,53331.856 L 99012.637,53532.319 L 100394.98,53876.547 L 100855.42,54163.067 L 101086.15,54507.295 L 101172.54,54507.295 L 100337.04,57890.859 L 99387.699,57662.048 L 95587.279,56801.477 L 95557.803,56629.363 L 95673.676,56543.306 L 95760.072,56227.425 L 95673.676,56084.672 L 95989.784,55884.209 L 96076.181,55654.386 L 95961.324,55482.272 L 96134.117,55424.563 L 96335.369,55453.924 L 96479.702,55367.867 L 92765.679,52471.285 L 91441.275,50004.989 z"
       />

     <path
       id="parnaiba" class="city"
       d="M 102928.93,9254.4124 L 103101.72,8967.8928 L 103791.88,8623.6643 L 103964.67,8451.5501 L 104195.4,7591.9913 L 104597.9,7103.9969 L 104454.59,6616.0024 L 104339.73,6444.9006 L 103705.48,5956.9061 L 103907.75,5842.5007 L 103964.67,5641.0258 L 104281.8,5526.6205 L 104137.46,5383.8669 L 104137.46,5268.4491 L 104426.13,5096.3349 L 104511.51,5154.0438 L 104886.57,4924.2207 L 105059.36,4493.9351 L 105174.22,4379.5297 L 105548.26,4236.7761 L 104857.09,2573.3427 L 105663.12,3318.4961 L 106008.7,3462.2621 L 106153.04,3346.8443 L 107189.79,4293.4726 L 107765.09,4666.0493 L 107823.03,4838.1635 L 107794.57,4924.2207 L 107505.9,5067.9867 L 107448.98,5468.9116 L 107535.38,5612.6776 L 107505.9,5727.083 L 107621.77,5756.4436 L 107708.17,5870.849 L 107650.23,6186.7292 L 107592.3,6186.7292 L 107246.71,6645.363 L 107189.79,6903.5344 L 107276.19,7333.82 L 107131.86,7390.5164 L 106959.06,7648.6878 L 107017,7849.1503 L 106728.33,7878.5109 L 106527.08,8050.6252 L 106527.08,8337.1448 L 106585.02,8365.493 L 106527.08,8480.9108 L 106930.6,8795.7786 L 105174.22,10659.675 L 102928.93,9254.4124 z"
       />

     <path
       id="floriano" class="city"
       d="M 68035.001,96060.735 L 68121.397,95687.145 L 68668.235,95716.506 L 69013.82,95228.512 L 69964.179,95286.22 L 70625.872,95200.163 L 70999.918,94941.992 L 71288.583,94540.055 L 71403.439,94511.706 L 72353.798,94453.998 L 73159.824,94569.415 L 73505.409,94884.283 L 73678.202,94884.283 L 74023.787,94827.587 L 74599.084,94597.764 L 75145.922,94081.421 L 75519.967,94109.769 L 75895.028,94367.94 L 76240.614,94425.649 L 76988.704,94225.187 L 77219.432,94024.724 L 77507.081,93422.325 L 78168.775,93078.096 L 78859.945,92303.582 L 78974.801,91787.239 L 78974.801,91758.891 L 79406.783,91987.702 L 79493.179,91959.354 L 79838.764,91959.354 L 80299.205,92103.12 L 80644.79,93106.444 L 81767.942,94683.821 L 81623.609,97924.631 L 78284.648,102943.28 L 78600.756,104319.18 L 80385.602,104807.18 L 81249.564,106298.49 L 80644.79,108018.62 L 79665.972,108133.03 L 75290.255,107101.36 L 73620.266,104979.29 L 71835.42,106384.55 L 68841.027,104577.35 L 69992.639,99674.121 L 66883.389,98613.087 L 67171.038,98096.745 L 67401.767,97408.288 L 67890.668,96949.654 L 68035.001,96519.368 L 68035.001,96060.735 z"
       />

     <path
       id="teresina" class="city"
       d="M 76902.307,66350.78 L 77133.036,65547.917 L 77593.478,65059.923 L 77621.937,64917.169 L 77766.27,64286.421 L 77881.126,64142.655 L 78600.756,63942.193 L 78773.549,63712.37 L 79004.278,63053.273 L 79090.674,62967.216 L 79205.53,62881.159 L 79723.908,62851.799 L 80011.557,62565.279 L 80126.413,62336.468 L 80760.663,62048.936 L 80990.376,61848.474 L 81307.501,60787.44 L 81307.501,60357.155 L 80990.376,59525.944 L 80961.916,59267.773 L 81595.149,58464.91 L 81653.086,58092.334 L 81537.213,57346.168 L 81307.501,56887.534 L 81163.168,56026.963 L 80731.187,55482.272 L 80644.79,55166.392 L 80644.79,54593.352 L 80242.285,53474.61 L 80184.349,53274.147 L 80357.142,52442.937 L 80040.017,52213.114 L 80011.557,52098.708 L 79522.655,51466.948 L 79406.783,51295.846 L 81163.168,49030.013 L 81249.564,49001.665 L 81854.338,49689.109 L 83178.742,49832.875 L 83610.724,51696.771 L 83725.58,51668.423 L 83811.976,51696.771 L 85395.569,51868.885 L 86143.659,51668.423 L 86230.055,58378.853 L 86201.595,59582.64 L 85424.029,59525.944 L 84848.731,60242.749 L 84416.75,60156.692 L 82775.221,61676.36 L 82775.221,63626.313 L 82804.697,66092.608 L 82775.221,66322.432 L 82545.508,66064.26 L 82256.843,65892.146 L 81825.878,65834.437 L 81335.961,65404.151 L 81163.168,65920.494 L 80529.934,66207.014 L 80471.998,66322.432 L 80501.474,66436.837 L 80328.682,66522.894 L 80184.349,66752.717 L 80328.682,67010.888 L 78974.801,66666.66 L 78341.568,67383.465 L 78053.919,66924.831 L 77939.063,66953.18 L 77650.397,66752.717 L 77334.289,66723.356 L 76902.307,66350.78 z"
       />

   <text class="label" id="country_name" x="10" y="390"> </text>
   </svg>
